HIERARCHY
ROOT joint_0
{
	OFFSET 0.000000 0.000000 0.000000
	CHANNELS 6 Xposition Yposition Zposition Zrotation Yrotation Xrotation 
	JOINT joint_1
	{
		OFFSET 13.542969 -4.074463 123.986084
		CHANNELS 3 Zrotation Yrotation Xrotation
		JOINT joint_2
		{
			OFFSET -0.108154 -3.018066 113.860962
			CHANNELS 3 Zrotation Yrotation Xrotation
			JOINT joint_3
			{
				OFFSET -1.139648 -3.876465 113.702026
				CHANNELS 3 Zrotation Yrotation Xrotation
				JOINT joint_4
				{
					OFFSET 13.593506 -8.582153 160.876953
					CHANNELS 3 Zrotation Yrotation Xrotation
					JOINT joint_5
					{
						OFFSET 26.480957 -11.565674 94.427979
						CHANNELS 3 Zrotation Yrotation Xrotation
						End Site
						{
							OFFSET 0.000000 0.000000 0.000000
						}
					}
				}
				JOINT joint_6
				{
					OFFSET 3.003662 -39.658691 88.713989
					CHANNELS 3 Zrotation Yrotation Xrotation
					JOINT joint_7
					{
						OFFSET -25.253906 -162.506348 -28.477051
						CHANNELS 3 Zrotation Yrotation Xrotation
						JOINT joint_8
						{
							OFFSET 23.083252 -8.502686 -295.281982
							CHANNELS 3 Zrotation Yrotation Xrotation
							JOINT joint_9
							{
								OFFSET 20.205566 -32.167908 -263.458008
								CHANNELS 3 Zrotation Yrotation Xrotation
								End Site
								{
									OFFSET 0.000000 0.000000 0.000000
								}
							}
						}
					}
				}
				JOINT joint_10
				{
					OFFSET 12.313232 30.012939 91.642944
					CHANNELS 3 Zrotation Yrotation Xrotation
					JOINT joint_11
					{
						OFFSET 31.960205 162.667969 -19.398926
						CHANNELS 3 Zrotation Yrotation Xrotation
						JOINT joint_12
						{
							OFFSET 51.325195 40.249023 -289.038086
							CHANNELS 3 Zrotation Yrotation Xrotation
							JOINT joint_13
							{
								OFFSET 70.170898 60.433594 -249.556030
								CHANNELS 3 Zrotation Yrotation Xrotation
								End Site
								{
									OFFSET 0.000000 0.000000 0.000000
								}
							}
						}
					}
				}
			}
		}
	}
	JOINT joint_14
	{
		OFFSET -15.093262 -91.803833 -113.326904
		CHANNELS 3 Zrotation Yrotation Xrotation
		JOINT joint_15
		{
			OFFSET 2.288818 -12.306763 -494.206055
			CHANNELS 3 Zrotation Yrotation Xrotation
			JOINT joint_16
			{
				OFFSET -54.691650 0.383423 -424.447006
				CHANNELS 3 Zrotation Yrotation Xrotation
				JOINT joint_17
				{
					OFFSET 202.154297 -21.791382 -80.181999
					CHANNELS 3 Zrotation Yrotation Xrotation
					End Site
					{
						OFFSET 0.000000 0.000000 0.000000
					}
				}
			}
		}
	}
	JOINT joint_18
	{
		OFFSET 10.704102 91.957275 -113.713013
		CHANNELS 3 Zrotation Yrotation Xrotation
		JOINT joint_19
		{
			OFFSET 0.427490 1.374878 -494.359924
			CHANNELS 3 Zrotation Yrotation Xrotation
			JOINT joint_20
			{
				OFFSET -53.071777 2.769531 -424.643028
				CHANNELS 3 Zrotation Yrotation Xrotation
				JOINT joint_21
				{
					OFFSET 200.264648 -28.253052 -82.862999
					CHANNELS 3 Zrotation Yrotation Xrotation
					End Site
					{
						OFFSET 0.000000 0.000000 0.000000
					}
				}
			}
		}
	}
}
MOTION
Frames: 12
Frame Time: 0.016667
-2914.880615 1209.677979 1138.661987 7.768445 -0.979473 -0.578279 0.729820 -2.151809 -0.051144 0.773983 0.191390 0.108909 0.749728 -0.446636 -0.033578 0.359316 0.417056 -1.113241 0.000000 0.000000 0.000000 -0.313942 -1.436434 2.473801 -1.129539 -0.192058 -4.785945 -1.303405 5.724881 -5.373456 0.000000 0.000000 0.000000 -0.521080 1.190994 1.298050 -0.462300 2.076480 -3.154504 -0.454157 -0.021014 -1.566767 0.000000 0.000000 0.000000 -5.045947 5.009560 4.863520 -4.795221 -3.733879 -1.416393 -4.770707 1.014191 -1.771045 0.000000 0.000000 0.000000 -0.181119 -6.308263 6.008131 -0.048753 5.251488 -1.641479 -0.278243 3.634908 0.398398 0.000000 0.000000 0.000000 
-2907.529541 1211.036011 1139.306030 8.731837 -0.851485 -0.415067 0.849762 -2.540286 -0.163083 0.917271 0.294337 0.122125 0.884159 -0.600347 -0.035075 0.350173 0.193168 -1.186124 0.000000 0.000000 0.000000 0.187054 -0.865061 2.699923 -1.079731 0.639353 -5.688252 -1.050457 4.555935 -4.250923 0.000000 0.000000 0.000000 -0.279787 1.340387 1.324944 -0.530119 2.164438 -2.990663 -0.710308 0.021784 -2.465596 0.000000 0.000000 0.000000 -5.298685 5.412197 4.749365 -5.032355 -3.894006 -1.558984 -5.017808 0.976227 -1.871344 0.000000 0.000000 0.000000 -0.484031 -5.887873 5.984696 -0.339794 4.666110 -2.083248 -0.614181 3.788098 0.283270 0.000000 0.000000 0.000000 
-2899.490479 1212.617554 1140.126953 9.714043 -0.828669 -0.220817 0.941636 -2.945203 -0.234864 1.039503 0.421760 0.115723 0.996577 -0.779415 -0.023879 0.378497 0.135718 -1.322387 0.000000 0.000000 0.000000 0.562041 -0.099343 2.913853 -0.923520 1.652640 -6.759256 -0.593179 2.622428 -2.441437 0.000000 0.000000 0.000000 0.016648 1.561027 1.218512 -0.568801 2.243498 -2.574051 -0.986969 0.176677 -3.495061 0.000000 0.000000 0.000000 -5.547598 5.860107 4.547144 -5.271526 -3.828422 -1.638660 -5.258244 0.902821 -1.972501 0.000000 0.000000 0.000000 -0.791363 -5.274898 5.934570 -0.643480 3.991390 -2.527688 -0.960871 3.957972 0.165771 0.000000 0.000000 0.000000 
-2892.077148 1214.718506 1140.993042 10.570816 -0.788248 -0.055928 1.026341 -3.176159 -0.206771 1.146099 0.492771 0.086543 1.098351 -0.880333 -0.001991 0.410898 0.147050 -1.443048 0.000000 0.000000 0.000000 0.720848 0.501493 3.003891 -0.795569 2.489097 -8.107653 -0.087078 0.469291 -0.255621 0.000000 0.000000 0.000000 0.380913 1.694331 1.150096 -0.623839 2.259287 -2.286613 -1.207215 0.261484 -4.250248 0.000000 0.000000 0.000000 -5.768033 5.978472 4.277954 -5.506424 -3.212716 -1.615394 -5.478437 0.737419 -2.075913 0.000000 0.000000 0.000000 -1.052764 -4.761143 5.788019 -0.907633 3.453411 -2.765180 -1.242731 4.100506 0.070533 0.000000 0.000000 0.000000 
-2885.909912 1217.680298 1141.938965 11.302145 -0.697112 0.049917 1.095025 -3.138531 -0.016365 1.217730 0.462708 0.028442 1.173092 -0.848247 0.047241 0.436230 0.251848 -1.494620 0.000000 0.000000 0.000000 0.426006 0.795704 2.875184 -0.791881 3.012187 -10.051823 0.448082 -2.104084 2.670395 0.000000 0.000000 0.000000 0.874917 1.658859 1.112464 -0.705200 2.164365 -2.341687 -1.307329 0.179741 -4.472752 0.000000 0.000000 0.000000 -5.961297 5.640095 3.935062 -5.745067 -1.929305 -1.466869 -5.683170 0.521872 -2.179105 0.000000 0.000000 0.000000 -1.261069 -4.473088 5.454584 -1.121808 3.187890 -2.630165 -1.432164 4.191865 0.005545 0.000000 0.000000 0.000000 
-2880.368408 1221.161621 1142.930054 11.906983 -0.585694 0.144597 1.161184 -2.931741 0.259712 1.275387 0.377791 -0.039544 1.238210 -0.743254 0.109287 0.459391 0.412947 -1.514202 0.000000 0.000000 0.000000 -0.103759 0.861057 2.687612 -1.020400 3.357242 -12.433678 0.874629 -4.884734 6.101480 0.000000 0.000000 0.000000 1.434949 1.551575 1.083268 -0.792999 2.020058 -2.528179 -1.354881 -0.020876 -4.430297 0.000000 0.000000 0.000000 -6.117315 4.975252 3.485293 -5.972068 -0.106760 -1.200065 -5.859588 0.265612 -2.275130 0.000000 0.000000 0.000000 -1.424051 -4.275346 4.991704 -1.294326 3.053257 -2.277014 -1.556447 4.245315 -0.038338 0.000000 0.000000 0.000000 
-2874.916748 1224.433228 1143.734009 12.239623 -0.420557 0.295598 1.286727 -2.655424 0.461948 1.388256 0.292888 -0.076637 1.358173 -0.634786 0.132326 0.469270 0.444927 -1.542916 0.000000 0.000000 0.000000 -0.290023 0.752912 2.514372 -1.418103 3.556806 -14.451459 1.035750 -6.613750 8.889795 0.000000 0.000000 0.000000 1.861000 1.480495 1.192797 -0.881044 1.935428 -2.579804 -1.464906 -0.311191 -4.502987 0.000000 0.000000 0.000000 -6.191807 3.981266 2.896895 -6.141991 2.220125 -0.827104 -5.964693 -0.132973 -2.357112 0.000000 0.000000 0.000000 -1.516126 -4.076251 4.532221 -1.399675 2.866161 -1.971621 -1.622054 4.256944 -0.064162 0.000000 0.000000 0.000000 
-2869.299316 1227.379639 1144.291016 12.193869 -0.185213 0.562882 1.513795 -2.316300 0.452052 1.601512 0.224254 -0.016168 1.575813 -0.552161 0.085567 0.460183 0.243680 -1.602968 0.000000 0.000000 0.000000 0.129634 0.498986 2.202103 -1.829248 3.562716 -15.671304 0.971207 -6.551139 10.646862 0.000000 0.000000 0.000000 2.088498 1.500151 1.502304 -0.988875 1.956636 -2.339526 -1.732161 -0.741225 -4.924228 0.000000 0.000000 0.000000 -6.121111 2.589973 2.082511 -6.191691 5.176787 -0.309432 -5.934020 -0.674214 -2.398699 0.000000 0.000000 0.000000 -1.520072 -3.806345 4.054950 -1.420245 2.496326 -1.761139 -1.617762 4.240962 -0.065151 0.000000 0.000000 0.000000 
-2863.771729 1230.116333 1144.661011 11.870952 0.099399 0.935656 1.800842 -1.876385 0.249123 1.873205 0.145600 0.130865 1.851203 -0.473562 -0.000506 0.437177 -0.090728 -1.671148 0.000000 0.000000 0.000000 0.886562 0.151704 1.747271 -2.230960 3.422894 -16.384027 0.787076 -5.415492 11.832661 0.000000 0.000000 0.000000 2.188946 1.553058 1.926208 -1.107601 2.028452 -1.938006 -2.061815 -1.254180 -5.438525 0.000000 0.000000 0.000000 -5.955130 0.871746 1.083173 -6.155179 8.606356 0.288967 -5.814262 -1.195692 -2.399815 0.000000 0.000000 0.000000 -1.456217 -3.530660 3.506508 -1.371422 2.066534 -1.579532 -1.549717 4.209828 -0.041890 0.000000 0.000000 0.000000 
-2858.561279 1232.261108 1144.787964 11.429553 0.417774 1.362848 2.087543 -1.386381 -0.047090 2.144133 0.062680 0.264594 2.126161 -0.391806 -0.081362 0.403289 -0.436097 -1.706125 0.000000 0.000000 0.000000 1.767246 -0.100057 1.322724 -2.548554 3.333884 -16.689653 0.586515 -4.222080 12.448119 0.000000 0.000000 0.000000 2.160623 1.568882 2.399757 -1.178119 2.105257 -1.564232 -2.268905 -1.641890 -5.684285 0.000000 0.000000 0.000000 -5.825856 -0.996392 0.081854 -6.139230 12.099462 0.778584 -5.744401 -1.638315 -2.408808 0.000000 0.000000 0.000000 -1.349601 -3.369148 2.991204 -1.272390 1.777871 -1.530571 -1.448079 4.137758 -0.010352 0.000000 0.000000 0.000000 
-2853.843506 1233.648193 1144.594971 10.800668 0.772076 1.872029 2.375178 -0.856026 -0.454376 2.416821 -0.007608 0.329726 2.402534 -0.315165 -0.147875 0.348225 -0.764962 -1.657140 0.000000 0.000000 0.000000 2.836502 -0.208766 0.981621 -2.691741 3.336826 -16.443659 0.412691 -3.090099 12.265620 0.000000 0.000000 0.000000 1.953146 1.531994 3.005230 -1.168809 2.219914 -1.358577 -2.265740 -1.827543 -5.494817 0.000000 0.000000 0.000000 -5.811020 -3.210491 -0.924803 -6.222958 16.071128 1.036340 -5.857840 -2.028093 -2.477287 0.000000 0.000000 0.000000 -1.176807 -3.280432 2.545364 -1.098681 1.538203 -1.723759 -1.303178 4.049871 0.036976 0.000000 0.000000 0.000000 
-2849.444824 1234.442261 1144.160034 10.063840 1.159085 2.462432 2.657333 -0.255752 -1.030190 2.680673 -0.092891 0.414388 2.669533 -0.243895 -0.208267 0.281394 -1.107036 -1.576164 0.000000 0.000000 0.000000 4.028914 -0.243983 0.661250 -2.707640 3.365107 -15.764848 0.246267 -1.846327 11.520438 0.000000 0.000000 0.000000 1.629194 1.465862 3.685651 -1.105417 2.352933 -1.213139 -2.131981 -1.876485 -5.042121 0.000000 0.000000 0.000000 -5.829962 -5.584911 -1.919032 -6.300427 20.081562 1.085390 -6.087971 -2.246055 -2.565965 0.000000 0.000000 0.000000 -0.963246 -3.295841 2.096419 -0.874225 1.430648 -2.046564 -1.125049 3.930632 0.093643 0.000000 0.000000 0.000000 
